<?xml version="1.0" encoding="utf-8"?>
<!-- Generator: Adobe Illustrator 19.2.1, SVG Export Plug-In . SVG Version: 6.00 Build 0)  -->
<svg version="1.1" id="Ebene_1" xmlns="http://www.w3.org/2000/svg" xmlns:xlink="http://www.w3.org/1999/xlink" x="0px" y="0px"
	 viewBox="0 0 16 16" style="enable-background:new 0 0 16 16;" xml:space="preserve">
<style type="text/css">
	.st0{fill:#F6D0A7;}
	.st1{fill:#754C24;}
	.st2{fill:#C82827;}
</style>
<circle class="st0" cx="8" cy="5.5" r="4.5"/>
<path class="st1" d="M12.5,5.5C12.5,3,10.5,1,8,1S3.5,3,3.5,5.5c0,0,1.6-0.9,3.2-2.9C8.6,4.7,12.5,5.5,12.5,5.5z"/>
<path class="st2" d="M15,15H1v0c0-2.2,1.8-4,4-4h6C13.2,11,15,12.8,15,15L15,15z"/>
<ellipse class="st0" cx="12.9" cy="23.4" rx="1.2" ry="0.7"/>
<path class="st0" d="M9.5,10.9c0,0,0.1,0.7-1.5,0.7s-1.5-0.7-1.5-0.7V9.3h3V10.9z"/>
</svg>
