<?xml version="1.0" encoding="utf-8"?>
<!-- Generator: Adobe Illustrator 19.2.1, SVG Export Plug-In . SVG Version: 6.00 Build 0)  -->
<svg version="1.1" id="Ebene_1" xmlns="http://www.w3.org/2000/svg" xmlns:xlink="http://www.w3.org/1999/xlink" x="0px" y="0px"
	 viewBox="0 0 16 16" style="enable-background:new 0 0 16 16;" xml:space="preserve">
<style type="text/css">
	.st0{fill:#C66728;}
	.st1{fill:#F6D0A7;}
	.st2{fill:#754C24;}
	.st3{fill:#C82827;}
</style>
<path class="st0" d="M15,9H7v0c0-1.1,0.9-2,2-2h4C14.1,7,15,7.9,15,9L15,9z"/>
<circle class="st1" cx="11" cy="4" r="2.5"/>
<path class="st2" d="M13.5,4c0-1.4-1.1-2.5-2.5-2.5S8.5,2.6,8.5,4c0,0,0.9-0.5,1.8-1.6C11.4,3.6,13.5,4,13.5,4z"/>
<path class="st1" d="M12,7c0,0,0.1,0.6-1,0.6S10,7,10,7V5.6h2V7z"/>
<path class="st3" d="M9,15H1v0c0-1.1,0.9-2,2-2h4C8.1,13,9,13.9,9,15L9,15z"/>
<circle class="st1" cx="5" cy="10" r="2.5"/>
<path class="st2" d="M7.5,10c0-1.4-1.1-2.5-2.5-2.5S2.5,8.6,2.5,10c0,0,0.9-0.5,1.8-1.6C5.4,9.6,7.5,10,7.5,10z"/>
<path class="st1" d="M6,13c0,0,0.1,0.6-1,0.6S4,13,4,13v-1.4h2V13z"/>
</svg>
